<svg width="37" height="31" viewBox="0 0 37 31" fill="none" xmlns="http://www.w3.org/2000/svg">
<path d="M6.03796 17.7738C4.91807 16.9764 4.91807 15.3129 6.03796 14.5154L23.0899 2.37333C24.414 1.43053 26.25 2.37711 26.25 4.00251L26.25 28.2867C26.25 29.9121 24.414 30.8587 23.0899 29.9159L6.03796 17.7738Z" fill="white"/>
<path d="M20.875 16.1446C20.875 19.331 18.2919 21.9141 15.1055 21.9141L5.76953 21.9141C2.58311 21.9141 -2.78566e-07 19.331 0 16.1446C2.78566e-07 12.9582 2.58311 10.3751 5.76953 10.3751H15.1055C18.2919 10.3751 20.875 12.9582 20.875 16.1446Z" fill="white"/>
<path d="M2.93552 4.08195C2.07427 3.39034 1.93676 2.1315 2.62838 1.27025C3.31999 0.409008 4.57884 0.271496 5.44008 0.963111L35.3198 24.9577C36.181 25.6494 36.3185 26.9082 35.6269 27.7694C34.9353 28.6307 33.6764 28.7682 32.8152 28.0766L2.93552 4.08195Z" fill="white"/>
</svg>
