<svg width="21" height="28" viewBox="0 0 21 28" fill="none" xmlns="http://www.w3.org/2000/svg">
<g id="pause">
<path d="M2.625 27.8223C1.52043 27.8223 0.625001 26.9268 0.625001 25.8223L0.625 2.17773C0.625 1.07317 1.52043 0.177734 2.625 0.177734L3.625 0.177734C4.72957 0.177734 5.625 1.07316 5.625 2.17773L5.625 25.8223C5.625 26.9268 4.72957 27.8223 3.625 27.8223H2.625Z" fill="white"/>
<path d="M17.875 27.8223C16.7704 27.8223 15.875 26.9268 15.875 25.8223L15.875 2.17773C15.875 1.07317 16.7704 0.177734 17.875 0.177734L18.875 0.177734C19.9796 0.177734 20.875 1.07316 20.875 2.17773L20.875 25.8223C20.875 26.9268 19.9796 27.8223 18.875 27.8223H17.875Z" fill="white"/>
</g>
</svg>
